<?xml version="1.0" encoding="UTF-8"?>
<svg id="Layer_2" data-name="Layer 2" xmlns="http://www.w3.org/2000/svg" viewBox="0 0 718.18 138.66">
  <defs>
    <style>
      .cls-1 {
        fill: #fff;
      }

      .cls-1, .cls-2 {
        stroke-width: 0px;
      }

      .cls-2 {
        fill: #fee040;
      }
    </style>
  </defs>
  <g id="Layer_1-2" data-name="Layer 1">
    <g>
      <path class="cls-1" d="m219.46,88.35l-15.23-21.68c-1.41.1-2.92.2-4.44.2h-17.44v21.48h-10.08V17.77h27.53c18.35,0,29.44,9.28,29.44,24.6,0,10.89-5.65,18.75-15.53,22.28l16.74,23.7h-10.99Zm-.3-45.98c0-10.08-6.76-15.83-19.66-15.83h-17.14v31.76h17.14c12.9,0,19.66-5.85,19.66-15.93Z"/>
      <path class="cls-1" d="m239.83,53.06c0-20.67,15.93-36.1,37.61-36.1s37.41,15.33,37.41,36.1-15.93,36.1-37.41,36.1-37.61-15.43-37.61-36.1Zm64.93,0c0-15.63-11.7-27.12-27.32-27.12s-27.53,11.49-27.53,27.12,11.7,27.12,27.53,27.12,27.32-11.49,27.32-27.12Z"/>
      <path class="cls-1" d="m354.28,63.95v24.4h-9.98v-24.6l-28.03-45.98h10.79l22.59,37.21,22.69-37.21h9.98l-28.04,46.18Z"/>
      <path class="cls-1" d="m433.23,70.7h-37.51l-7.76,17.65h-10.39l31.96-70.58h9.98l32.06,70.58h-10.58l-7.76-17.65Zm-3.53-8.06l-15.23-34.58-15.23,34.58h30.46Z"/>
      <path class="cls-1" d="m462.07,17.77h10.08v61.81h38.21v8.77h-48.3V17.77h0Z"/>
      <path class="cls-1" d="m578.02,17.77l-30.95,70.58h-9.98l-31.06-70.58h10.89l25.41,57.98,25.61-57.98h10.08Z"/>
      <path class="cls-1" d="m587,17.77h29.75c22.69,0,38.11,14.32,38.11,35.29s-15.43,35.29-38.11,35.29h-29.75V17.77Zm29.14,61.81c17.44,0,28.64-10.69,28.64-26.52s-11.19-26.52-28.64-26.52h-19.06v53.04h19.06Z"/>
      <path class="cls-1" d="m663.83,80.28l3.73-7.87c5.24,4.74,14.22,8.17,23.29,8.17,12.2,0,17.44-4.74,17.44-10.89,0-17.24-42.75-6.35-42.75-32.57,0-10.89,8.47-20.17,27.02-20.17,8.27,0,16.84,2.22,22.69,6.25l-3.33,8.07c-6.15-3.93-13.11-5.75-19.36-5.75-12,0-17.14,5.04-17.14,11.19,0,17.24,42.75,6.45,42.75,32.37,0,10.79-8.67,20.07-27.33,20.07-10.77.01-21.36-3.62-27.01-8.87Z"/>
    </g>
    <g>
      <rect class="cls-2" x="172.27" y="110.39" width="109.28" height="2.01"/>
      <rect class="cls-2" x="608.9" y="110.39" width="109.28" height="2.01"/>
    </g>
    <g>
      <g>
        <path class="cls-1" d="m88.52,87.35c15.36-5.48,24.14-17.71,24.14-34.64,0-23.82-17.24-38.24-45.76-38.24H24.11v5.27l15.67,22.31v-13.94h26.64c20.06,0,30.56,8.93,30.56,24.61s-10.5,24.76-30.56,24.76h-1.77l9.14,13.01h0l23.67,33.69h17.08l-26.02-36.83Z"/>
        <polygon class="cls-1" points="88.49 124.18 39.78 55.23 39.78 79.15 71.41 124.18 88.49 124.18"/>
      </g>
      <path class="cls-1" d="m132.64,6.02v126.63H6.01V6.02h126.63m6.01-6.02H0v138.66h138.66V0h-.01Z"/>
    </g>
    <g>
      <path class="cls-1" d="m333.65,117.58c1.21.75,2.99,1.37,4.86,1.37,2.77,0,4.39-1.47,4.39-3.58,0-1.96-1.12-3.08-3.95-4.17-3.43-1.21-5.54-2.99-5.54-5.95,0-3.27,2.71-5.7,6.79-5.7,2.15,0,3.71.5,4.64,1.03l-.75,2.21c-.68-.38-2.09-1-3.99-1-2.86,0-3.95,1.71-3.95,3.14,0,1.96,1.28,2.93,4.17,4.05,3.55,1.37,5.36,3.08,5.36,6.17,0,3.24-2.4,6.04-7.35,6.04-2.02,0-4.24-.59-5.36-1.34l.68-2.27Z"/>
      <path class="cls-1" d="m389.61,120.2c-1,.5-2.99,1-5.54,1-5.92,0-10.37-3.74-10.37-10.62s4.45-11.03,10.96-11.03c2.62,0,4.27.56,4.98.94l-.65,2.21c-1.03-.5-2.49-.87-4.24-.87-4.92,0-8.19,3.14-8.19,8.66,0,5.14,2.96,8.44,8.07,8.44,1.65,0,3.33-.34,4.42-.87l.56,2.15Z"/>
      <path class="cls-1" d="m421.28,99.89v8.78h10.15v-8.78h2.74v20.99h-2.74v-9.84h-10.15v9.84h-2.71v-20.99h2.71Z"/>
      <path class="cls-1" d="m482.38,110.17c0,7.23-4.39,11.06-9.75,11.06s-9.44-4.3-9.44-10.65c0-6.66,4.14-11.03,9.75-11.03s9.44,4.39,9.44,10.62Zm-16.29.34c0,4.49,2.43,8.5,6.7,8.5s6.73-3.96,6.73-8.72c0-4.17-2.18-8.53-6.7-8.53s-6.73,4.14-6.73,8.75Z"/>
      <path class="cls-1" d="m529.41,110.17c0,7.23-4.39,11.06-9.75,11.06s-9.44-4.3-9.44-10.65c0-6.66,4.14-11.03,9.75-11.03s9.44,4.39,9.44,10.62Zm-16.29.34c0,4.49,2.43,8.5,6.7,8.5s6.73-3.96,6.73-8.72c0-4.17-2.18-8.53-6.7-8.53s-6.73,4.14-6.73,8.75Z"/>
      <path class="cls-1" d="m558.49,99.89h2.71v18.72h8.97v2.27h-11.68v-20.99Z"/>
    </g>
  </g>
</svg>